<svg width="428" height="135" viewBox="0 0 428 135" fill="none" xmlns="http://www.w3.org/2000/svg">
<mask id="mask0_9_134" style="mask-type:alpha" maskUnits="userSpaceOnUse" x="-56" y="-35" width="100" height="100">
<circle cx="-6" cy="15" r="50" fill="#C4C4C4"/>
</mask>
<g mask="url(#mask0_9_134)">
<path d="M-46.3013 -8.26795L-6 -31.5359L34.3013 -8.26795L34.3013 38.268L-6 61.5359L-46.3013 38.268L-46.3013 -8.26795Z" fill="white" stroke="#F2C84A" stroke-width="6"/>
</g>
<mask id="mask1_9_134" style="mask-type:alpha" maskUnits="userSpaceOnUse" x="24" y="-35" width="100" height="100">
<circle cx="74" cy="15" r="50" fill="#C4C4C4"/>
</mask>
<g mask="url(#mask1_9_134)">
<path d="M33.6987 -8.26795L74 -31.5359L114.301 -8.26795L114.301 38.268L74 61.5359L33.6987 38.268L33.6987 -8.26795Z" fill="white" stroke="#F2C84A" stroke-width="6"/>
</g>
<mask id="mask2_9_134" style="mask-type:alpha" maskUnits="userSpaceOnUse" x="104" y="-35" width="100" height="100">
<circle cx="154" cy="15" r="50" fill="#C4C4C4"/>
</mask>
<g mask="url(#mask2_9_134)">
<path d="M113.699 -8.26795L154 -31.5359L194.301 -8.26795V38.268L154 61.5359L113.699 38.268L113.699 -8.26795Z" fill="white" stroke="#F2C84A" stroke-width="6"/>
</g>
<mask id="mask3_9_134" style="mask-type:alpha" maskUnits="userSpaceOnUse" x="184" y="-35" width="100" height="100">
<circle cx="234" cy="15" r="50" fill="#C4C4C4"/>
</mask>
<g mask="url(#mask3_9_134)">
<path d="M193.699 -8.26795L234 -31.5359L274.301 -8.26795V38.268L234 61.5359L193.699 38.268V-8.26795Z" fill="white" stroke="#F2C84A" stroke-width="6"/>
</g>
<mask id="mask4_9_134" style="mask-type:alpha" maskUnits="userSpaceOnUse" x="264" y="-35" width="100" height="100">
<circle cx="314" cy="15" r="50" fill="#C4C4C4"/>
</mask>
<g mask="url(#mask4_9_134)">
<path d="M273.699 -8.26795L314 -31.5359L354.301 -8.26795V38.268L314 61.5359L273.699 38.268V-8.26795Z" fill="white" stroke="#F2C84A" stroke-width="6"/>
</g>
<mask id="mask5_9_134" style="mask-type:alpha" maskUnits="userSpaceOnUse" x="344" y="-35" width="100" height="100">
<circle cx="394" cy="15" r="50" fill="#C4C4C4"/>
</mask>
<g mask="url(#mask5_9_134)">
<path d="M353.699 -8.26795L394 -31.5359L434.301 -8.26795V38.268L394 61.5359L353.699 38.268V-8.26795Z" fill="white" stroke="#F2C84A" stroke-width="6"/>
</g>
<mask id="mask6_9_134" style="mask-type:alpha" maskUnits="userSpaceOnUse" x="-16" y="35" width="100" height="100">
<circle cx="34" cy="85" r="50" fill="#C4C4C4"/>
</mask>
<g mask="url(#mask6_9_134)">
<path d="M-6.30127 61.732L34 38.4641L74.3013 61.732L74.3013 108.268L34 131.536L-6.30127 108.268L-6.30127 61.732Z" fill="white" stroke="#F2C84A" stroke-width="6"/>
</g>
<mask id="mask7_9_134" style="mask-type:alpha" maskUnits="userSpaceOnUse" x="64" y="35" width="100" height="100">
<circle cx="114" cy="85" r="50" fill="#C4C4C4"/>
</mask>
<g mask="url(#mask7_9_134)">
<path d="M73.6987 61.732L114 38.4641L154.301 61.732V108.268L114 131.536L73.6987 108.268L73.6987 61.732Z" fill="white" stroke="#F2C84A" stroke-width="6"/>
</g>
<mask id="mask8_9_134" style="mask-type:alpha" maskUnits="userSpaceOnUse" x="144" y="35" width="100" height="100">
<circle cx="194" cy="85" r="50" fill="#C4C4C4"/>
</mask>
<g mask="url(#mask8_9_134)">
<path d="M153.699 61.732L194 38.4641L234.301 61.732V108.268L194 131.536L153.699 108.268V61.732Z" fill="white" stroke="#F2C84A" stroke-width="6"/>
</g>
<mask id="mask9_9_134" style="mask-type:alpha" maskUnits="userSpaceOnUse" x="224" y="35" width="100" height="100">
<circle cx="274" cy="85" r="50" fill="#C4C4C4"/>
</mask>
<g mask="url(#mask9_9_134)">
<path d="M233.699 61.732L274 38.4641L314.301 61.732V108.268L274 131.536L233.699 108.268V61.732Z" fill="white" stroke="#F2C84A" stroke-width="6"/>
</g>
<mask id="mask10_9_134" style="mask-type:alpha" maskUnits="userSpaceOnUse" x="304" y="35" width="100" height="100">
<circle cx="354" cy="85" r="50" fill="#C4C4C4"/>
</mask>
<g mask="url(#mask10_9_134)">
<path d="M313.699 61.732L354 38.4641L394.301 61.732V108.268L354 131.536L313.699 108.268V61.732Z" fill="white" stroke="#F2C84A" stroke-width="6"/>
</g>
<mask id="mask11_9_134" style="mask-type:alpha" maskUnits="userSpaceOnUse" x="384" y="35" width="100" height="100">
<circle cx="434" cy="85" r="50" fill="#C4C4C4"/>
</mask>
<g mask="url(#mask11_9_134)">
<path d="M393.699 61.732L434 38.4641L474.301 61.732V108.268L434 131.536L393.699 108.268V61.732Z" fill="white" stroke="#F2C84A" stroke-width="6"/>
</g>
</svg>
